<svg xmlns="http://www.w3.org/2000/svg" viewBox="0 0 600 300" role="img"><rect width="600" height="300" rx="24" fill="#fff4dc"/><path d="M70 235V112l120-72 120 72v123" fill="#e4c18e"/><path d="M105 235v-95h168v95" fill="#f8ead1"/><circle cx="185" cy="125" r="32" fill="#704c35"/><path d="M145 222c5-50 18-72 40-72s36 22 42 72" fill="#d5682d"/><rect x="330" y="192" width="190" height="25" rx="6" fill="#17352d"/><rect x="358" y="217" width="18" height="45" fill="#17352d"/><rect x="475" y="217" width="18" height="45" fill="#17352d"/><ellipse cx="425" cy="190" rx="58" ry="13" fill="#244e78"/><path d="M425 187c-29-16-18-38-3-48-2 16 11 19 9 32 14-13 21-30 10-44 31 19 32 49-16 60Z" fill="#f47b35"/><path d="M425 180c-12-8-7-19 1-26 0 8 7 11 4 19 7-5 9-11 7-18 11 12 5 22-12 25Z" fill="#6aa9df"/><rect x="525" y="157" width="45" height="87" rx="15" fill="#248057"/><rect x="536" y="144" width="23" height="20" rx="5" fill="#17352d"/></svg>
