<svg xmlns="http://www.w3.org/2000/svg" viewBox="0 0 410 100" role="img" aria-labelledby="t"><title id="t">Embeera Energy</title><g transform="translate(2)"><circle cx="50" cy="50" r="43" fill="#174d3f"/><g fill="#f2b35d"><circle cx="50" cy="11" r="6"/><circle cx="84" cy="31" r="6"/><circle cx="84" cy="69" r="6"/><circle cx="50" cy="89" r="6"/><circle cx="16" cy="69" r="6"/><circle cx="16" cy="31" r="6"/></g><path d="M51 74c-15-6-20-19-12-31 5-8 12-11 14-23 15 14 21 27 15 40-4 8-10 12-17 14Z" fill="#f47b35"/><path d="M51 65c-7-5-7-12-3-18 3-4 6-7 7-12 7 9 9 18 4 25-2 3-5 5-8 5Z" fill="#fff4dc"/></g><text x="112" y="48" font-family="Segoe UI,Arial,sans-serif" font-size="34" font-weight="700" fill="#17352d">Embeera</text><text x="113" y="75" font-family="Segoe UI,Arial,sans-serif" font-size="22" font-weight="600" letter-spacing="4" fill="#d5682d">ENERGY</text></svg>
