<svg xmlns="http://www.w3.org/2000/svg" viewBox="0 0 100 100" role="img" aria-labelledby="t"><title id="t">Embeera Energy community flame mark</title><circle cx="50" cy="50" r="43" fill="#174d3f"/><g fill="#f2b35d"><circle cx="50" cy="12" r="7"/><circle cx="82" cy="31" r="7"/><circle cx="82" cy="69" r="7"/><circle cx="50" cy="88" r="7"/><circle cx="18" cy="69" r="7"/><circle cx="18" cy="31" r="7"/></g><path d="M51 73c-15-5-20-18-13-30 5-8 13-12 15-23 14 13 22 27 15 40-3 7-9 11-17 13Z" fill="#f47b35"/><path d="M51 65c-7-5-8-12-3-18 3-4 6-7 7-12 7 9 9 18 4 25-2 3-5 5-8 5Z" fill="#fff4dc"/></svg>
